<svg viewBox="0 0 640 260" xmlns="http://www.w3.org/2000/svg" role="img" aria-labelledby="mobTitle">
  <title id="mobTitle">Illustration of an early touchscreen smartphone with signal bars and app icons</title>
  <rect width="640" height="260" fill="#121c30"/>
  <rect x="270" y="35" width="110" height="190" rx="16" fill="#1b2333" stroke="#0ea5a5" stroke-width="3"/>
  <rect x="282" y="55" width="86" height="130" rx="4" fill="#eef2ff"/>
  <circle cx="325" cy="205" r="8" fill="#0ea5a5"/>
  <g fill="#1d4ed8">
    <rect x="292" y="65" width="24" height="24" rx="5"/>
    <rect x="322" y="65" width="24" height="24" rx="5"/>
    <rect x="352" y="65" width="0" height="0"/>
    <rect x="292" y="95" width="24" height="24" rx="5" fill="#0ea5a5"/>
    <rect x="322" y="95" width="24" height="24" rx="5"/>
  </g>
  <g stroke="#f7b500" stroke-width="4" fill="none" stroke-linecap="round">
    <path d="M460 150 a70 70 0 0 0 0 -80"/>
    <path d="M480 130 a40 40 0 0 0 0 -40"/>
    <path d="M500 115 a15 15 0 0 0 0 -10"/>
  </g>
  <g stroke="#f7b500" stroke-width="4" fill="none" stroke-linecap="round" transform="scale(-1,1) translate(-640,0)">
    <path d="M460 150 a70 70 0 0 0 0 -80"/>
    <path d="M480 130 a40 40 0 0 0 0 -40"/>
    <path d="M500 115 a15 15 0 0 0 0 -10"/>
  </g>
</svg>
